<svg width="40" height="40" viewBox="0 0 40 40" fill="none" xmlns="http://www.w3.org/2000/svg">
<path fill-rule="evenodd" clip-rule="evenodd" d="M11.6251 28.7639H8.06021C7.5744 28.7656 7.11905 28.532 6.83807 28.1376C6.82284 28.1139 6.8093 28.0902 6.79745 28.0666L3.94184 21.9864L3.92322 21.9424C3.73702 21.4431 3.81997 20.8811 4.14159 20.4562C4.46489 20.0313 4.98287 19.8011 5.5144 19.8468L10.3964 19.9078C10.6384 19.8942 10.8483 20.0703 10.8771 20.3106L11.3426 24.3105L12.0705 28.2258C12.0756 28.2529 12.0789 28.28 12.0789 28.3088C12.0773 28.5593 11.8741 28.7641 11.6219 28.7641L11.6251 28.7639ZM25.0026 20.5271C25.0111 20.5339 25.0196 20.5423 25.028 20.5508C25.8338 21.3463 26.0471 22.5685 25.739 23.9074C25.353 25.3683 24.5828 26.7004 23.508 27.7635C22.4754 28.8671 21.1635 29.6728 19.7129 30.0977C18.3824 30.4447 17.1535 30.2636 16.3376 29.4799C16.3291 29.4714 16.3207 29.4646 16.3122 29.4562C15.5065 28.6606 15.2932 27.4385 15.6013 26.0995V26.0978C16.4375 23.1508 18.704 20.8232 21.6273 19.9076C22.9577 19.5606 24.1867 19.7417 25.0026 20.5271ZM18.318 29.3511C18.7107 29.3664 19.1051 29.3206 19.4843 29.2174C20.7741 28.8348 21.9387 28.1137 22.8562 27.1303C23.8142 26.1857 24.5015 25.0025 24.8485 23.7042C25.0703 22.7394 24.967 21.8778 24.493 21.3141C24.0631 21.3107 23.6348 21.3869 23.2302 21.5375C22.7868 21.7068 22.3822 21.9692 22.0504 22.3094C21.7068 22.6649 21.441 23.0881 21.27 23.5519C21.1025 24.0072 21.0365 24.4947 21.0754 24.9789C21.1786 26.2179 20.7402 27.4401 19.8736 28.3321C19.4538 28.7672 18.946 29.1057 18.384 29.3241L18.3146 29.3512L18.318 29.3511ZM17.5969 12.1684C17.3751 12.2869 17.1009 12.2023 16.9824 11.9806C16.8639 11.7588 16.9469 11.4829 17.1703 11.3644C18.0336 10.9023 18.6548 10.0898 18.8732 9.1334C19.0915 8.17872 18.885 7.17663 18.3078 6.3844C17.9456 5.88844 17.695 5.318 17.5732 4.71536C17.4513 4.11107 17.4598 3.48646 17.5969 2.88382C17.8728 1.67182 18.6633 0.637572 19.7602 0.053607C19.9819 -0.0648846 20.2578 0.0197525 20.3763 0.241498C20.4948 0.463245 20.4102 0.739142 20.1884 0.855969C19.3251 1.31808 18.7039 2.13228 18.4856 3.08696C18.3772 3.56432 18.3705 4.05859 18.4669 4.53764C18.5617 5.00989 18.7581 5.45679 19.0424 5.8461C19.7771 6.84988 20.0395 8.12281 19.7619 9.3365C19.4843 10.5485 18.6955 11.5811 17.5969 12.1667L17.5969 12.1684ZM22.3007 12.16C22.079 12.2785 21.8031 12.1938 21.6863 11.9721C21.5678 11.7503 21.6507 11.4744 21.8725 11.3576C22.4649 11.0411 22.8898 10.4842 23.0404 9.8308C23.1894 9.17742 23.0489 8.49188 22.6528 7.95021L22.6342 7.92312C22.0976 7.17154 21.9063 6.227 22.1112 5.32648C22.3194 4.41578 22.9118 3.63885 23.7362 3.20044C23.8428 3.13951 23.9698 3.12427 24.0883 3.15812C24.2067 3.19367 24.3049 3.27323 24.3625 3.38157C24.4217 3.4899 24.4319 3.61685 24.3946 3.73365C24.3574 3.85214 24.2745 3.94863 24.1644 4.00279C23.5787 4.31764 23.1556 4.87116 23.0032 5.51947C22.8526 6.16779 22.9863 6.84995 23.3722 7.39162L23.3892 7.41193V7.41362C23.9393 8.16689 24.1357 9.12327 23.9274 10.034C23.7192 10.9447 23.1251 11.7199 22.3007 12.16ZM10.6786 17.1026H30.5259V15.6571C30.5259 15.3794 30.4159 15.1137 30.2212 14.9173C30.0249 14.7227 29.7591 14.6144 29.4832 14.6144H11.7909C11.4981 14.6194 11.2188 14.7362 11.0106 14.9444C10.8041 15.1391 10.6856 15.4082 10.6805 15.6926V17.1044L10.6786 17.1026ZM13.3311 32.9701L13.5715 33.7589C13.5783 33.7792 13.5851 33.7979 13.5884 33.8165L13.8593 34.7102H13.861C13.9236 34.91 14.0522 35.0843 14.2249 35.2028C14.4128 35.3315 14.6345 35.3975 14.8614 35.3941H26.4107C26.8575 35.3975 27.2537 35.1148 27.3992 34.6933L27.4026 34.6831C27.5702 34.0957 27.7276 33.5253 27.88 32.9701L13.3311 32.9701ZM30.4852 18.0165H5.52762C4.96562 17.9861 4.40536 18.1012 3.89922 18.35C2.29284 19.1388 1.57342 21.0414 2.25896 22.6951L5.20093 28.9667C5.80014 29.9739 6.88518 30.5901 8.05653 30.5901L12.2985 30.6561C12.4966 30.6595 12.6692 30.7898 12.7268 30.9794L13.0535 32.056H28.1189C28.6571 29.9824 29.0769 28.0865 29.4189 26.1821C29.8759 23.6329 30.1992 21.0566 30.4836 18.0146L30.4852 18.0165ZM28.4303 34.4019C32.3269 34.7133 35.2622 35.2347 36.8652 35.8457H36.8668C37.2376 35.9676 37.5845 36.1538 37.891 36.3992C37.9773 36.4805 38.0145 36.5414 37.9976 36.577C37.9434 36.6718 37.8656 36.753 37.7742 36.8106C36.9396 37.4301 34.7577 37.9701 31.7564 38.3645C28.0781 38.808 24.3745 39.0196 20.6708 38.9992C16.9654 39.0195 13.2616 38.808 9.58342 38.3645C6.58222 37.9701 4.40028 37.4301 3.56567 36.8106C3.47088 36.7513 3.39133 36.6684 3.33546 36.5702C3.31854 36.5313 3.35578 36.4703 3.43872 36.3908L3.44041 36.3891C3.74172 36.1453 4.08366 35.9591 4.45264 35.839C6.03194 35.233 8.93161 34.7167 12.8165 34.4086L12.9942 34.9926V34.9943C13.1178 35.3836 13.3683 35.7205 13.7035 35.9541C14.0437 36.1893 14.4483 36.3146 14.863 36.3129H26.4105C27.2484 36.3095 27.9915 35.778 28.2641 34.9858C28.2708 34.9706 28.2759 34.9537 28.281 34.9384C28.3318 34.7607 28.3809 34.583 28.4316 34.4069L28.4303 34.4019ZM22.9932 20.6534C22.6106 20.6432 22.2264 20.6889 21.8557 20.7888C19.2607 21.6199 17.2497 23.6867 16.4897 26.3021C16.2679 27.2653 16.3712 28.1286 16.8451 28.6906L16.8468 28.6923C17.7423 28.7041 18.6039 28.3436 19.2217 27.6952C19.9073 26.9928 20.2526 26.0279 20.168 25.0512C20.1189 24.4367 20.2035 23.8189 20.4168 23.24C20.6301 22.6543 20.9635 22.1194 21.3969 21.6725C21.8234 21.2358 22.3397 20.8972 22.9102 20.6822C22.9372 20.6738 22.9661 20.6635 22.9932 20.6534Z" fill="black"/>
</svg>
