<svg width="32" height="40" viewBox="0 0 32 40" fill="none" xmlns="http://www.w3.org/2000/svg">
<path d="M15.4064 21.2957C15.4064 20.0383 16.4304 19.0157 17.6886 19.0157H19.3553C19.8948 19.0157 20.4051 19.205 20.81 19.541C21.3726 19.4681 21.9126 19.3494 22.4286 19.2014C23.4642 17.5814 24.0851 15.6721 24.0851 13.8032C24.0851 9.17254 20.318 5.40454 15.6877 5.40454C11.0562 5.40454 7.28906 9.17254 7.28906 13.8032C7.28995 18.4339 11.0562 23.3494 15.6873 23.3494C15.9922 23.3494 16.2926 23.3254 16.5895 23.2845C15.8877 22.8948 15.4064 22.1539 15.4064 21.2957Z" fill="#A85008"/>
<path d="M21.9916 23.4355C20.3622 24.6764 18.3298 25.4155 16.1289 25.4155H15.244C13.0427 25.4155 11.0098 24.6764 9.38089 23.4355C4.06133 24.2955 2.10945e-08 28.9062 2.10945e-08 34.4675C-0.000444423 37.5222 7.02222 40 15.6862 40C24.3484 40 31.372 37.5222 31.372 34.468C31.3724 28.9062 27.3107 24.2955 21.9916 23.4355Z" fill="#A85008"/>
<path d="M3.91853 20.2667H4.02342C5.18075 20.2667 6.11764 19.3298 6.11764 18.1702V13.9849C6.11764 13.1636 5.64297 12.4547 4.95275 12.1124C5.25142 6.44933 9.95142 1.93511 15.6865 1.93511C21.4208 1.93511 26.1216 6.44933 26.4194 12.112C25.7305 12.4547 25.2563 13.1636 25.2563 13.9844V18.1698C25.2563 18.4484 25.3092 18.7067 25.4047 18.948C24.1843 19.8227 22.4079 20.4444 20.4074 20.6164C20.1816 20.272 19.7945 20.0422 19.3545 20.0422H17.6879C16.9932 20.0422 16.4328 20.6044 16.4328 21.2956C16.4328 21.9898 16.9932 22.5524 17.6879 22.5524H19.3545C19.8399 22.5524 20.2528 22.2751 20.4625 21.8747C22.7848 21.6907 24.8052 20.9822 26.223 19.9338C26.5479 20.1436 26.9332 20.2667 27.3501 20.2667H27.4541C28.6114 20.2667 29.5479 19.3298 29.5479 18.1702V13.9849C29.5479 13.1516 29.0594 12.4311 28.3545 12.0978C28.047 5.37644 22.483 0 15.6865 0C8.89008 0 3.32653 5.37644 3.02031 12.0978C2.31364 12.4311 1.8252 13.1516 1.8252 13.9849V18.1702C1.82564 19.3298 2.76297 20.2667 3.91853 20.2667Z" fill="#A85008"/>
</svg>
