<svg width="40" height="38" viewBox="0 0 40 38" fill="none" xmlns="http://www.w3.org/2000/svg">
<path d="M39.0339 26.748C38.5716 25.296 37.4583 24.1565 36.0584 23.5445C37.0448 18.7311 34.4176 14.5085 30.9262 11.9549H31.9045C32.2642 11.9549 32.5556 11.6636 32.5556 11.3038V8.05314C32.6109 6.07864 30.4558 4.56807 28.618 5.29406C27.6641 5.60171 26.7005 6.0591 25.9973 6.75255C25.662 6.02005 25.0564 5.36732 24.2913 4.94081C25.7238 2.9191 23.5735 0.168226 21.2621 1.0374C17.9431 2.3445 19.8996 7.22472 23.1877 5.86208C24.1774 6.19252 24.9962 7.16592 24.988 8.0026C24.8513 8.22723 24.726 8.45839 24.6202 8.69929H20.5117C19.6148 8.69929 18.8839 9.43016 18.8839 10.3271C18.8839 11.2239 19.6148 11.9548 20.5117 11.9548H24.5111C29.8388 15.8956 30.223 22.8347 25.8898 27.3989C24.8334 28.1396 23.5101 28.5384 22.115 28.6084C20.7656 27.9914 19.6848 26.4336 20.0656 24.9768H20.8389C21.1986 24.9768 21.49 24.6854 21.49 24.3257V23.1944C21.49 21.3045 20.1243 19.7679 18.446 19.7679H16.1606C16.3234 19.348 16.3169 18.8336 16.146 18.4185C17.0217 18.2264 17.6793 17.4467 17.6793 16.5124L17.6777 1.95333C17.6777 0.875759 16.8019 0 15.7244 0H1.95333C0.875759 0 0 0.875759 0 1.95333V16.5136C0 17.015 0.195333 17.4691 0.507887 17.8158C-0.631567 19.0058 0.293023 21.1072 1.95337 21.0714H3.9067V23.6742C2.28382 25.0562 1.22575 27.0909 1.00273 29.5357H0.651131C0.293023 29.5357 2.07645e-05 29.8287 2.07645e-05 30.1868V32.7912C2.07645e-05 33.1493 0.293023 33.4423 0.651131 33.4423C1.25178 33.4374 3.49322 33.4456 4.05482 33.4326C5.51006 39.5074 14.0788 39.4732 15.4885 33.3902C20.9349 33.3756 25.4846 33.3756 27.4836 33.4033C28.063 36.0272 30.4135 38 33.2067 38C38.5685 38.0016 41.0804 31.3051 37.1198 27.7839C37.7954 27.5853 39.2701 27.8441 39.0341 26.7486L39.0339 26.748ZM1.95336 17.1636C1.59362 17.1636 1.30225 16.8722 1.30225 16.5125V1.95346C1.30225 1.59372 1.59362 1.30235 1.95336 1.30235H15.7244C16.0841 1.30235 16.3755 1.59372 16.3755 1.95346V16.5137C16.3755 16.8735 16.0841 17.1649 15.7244 17.1649C15.3956 17.1502 2.68427 17.1746 1.95336 17.1649V17.1636ZM9.76669 35.3947C8.42375 35.3947 7.27292 34.5808 6.77483 33.4202C8.80304 33.4121 10.8215 33.4039 12.7684 33.3974C12.2752 34.5694 11.1177 35.3947 9.76669 35.3947ZM15.3648 23.6747C12.705 21.5667 8.21069 21.0312 5.20912 22.7745V21.0703H18.443C19.4034 21.0703 20.1847 22.0242 20.1847 23.1945V23.6747H15.3648ZM18.4917 28.0373C18.1336 26.8946 17.5395 25.8625 16.7696 24.977H18.7213C18.5178 26.136 18.9687 27.4789 19.7695 28.4068C19.3382 28.3123 18.9101 28.1968 18.4901 28.0372L18.4917 28.0373ZM26.4351 10.6396C25.1703 10.6445 21.7487 10.6607 20.5099 10.6526C20.0867 10.651 20.0834 10.0031 20.5099 10.0015H26.3697C26.7522 9.99987 26.8143 10.568 26.4351 10.6396ZM27.9652 10.6526C28.2045 9.51315 27.1985 8.5593 26.077 8.69927C26.943 6.98847 30.9163 4.96355 31.255 8.05304V10.6526H27.9652ZM33.2066 35.3948C28.8832 35.245 28.924 29.0237 33.2066 28.8837C37.5087 29.0172 37.5087 35.2615 33.2066 35.3948ZM35.5245 26.7547C32.8062 25.5062 29.2705 26.8182 28.0042 29.4438C27.646 29.6196 27.2879 29.8084 26.9298 29.9972C28.1913 27.6174 29.8094 25.0146 32.5879 24.4237C34.4045 24.0542 36.5011 24.7477 37.4714 26.4096C36.8203 26.5008 36.1756 26.618 35.5245 26.7547Z" fill="#A85008"/>
<path d="M15.0583 14.4387V5.59656C15.0583 4.87869 14.4739 4.29434 13.756 4.29434H12.7224C12.8135 4.3041 11.2346 3.11096 11.2346 3.09954C11.1028 3.00676 10.9709 2.96281 10.8325 2.96118H7.08378C6.95193 2.96118 6.80054 3.01652 6.70776 3.08652C6.65405 3.12559 5.1451 4.27644 5.19394 4.29431H3.98777C3.2699 4.29431 2.68555 4.87867 2.68555 5.59654V14.4387C2.68555 15.1566 3.2699 15.7409 3.98777 15.7409H13.7546C14.4725 15.7409 15.0569 15.1566 15.0569 14.4387L15.0583 14.4387ZM10.7024 3.99014L8.96066 6.67759L7.21893 3.99014H10.704H10.7024ZM3.98959 5.59676H5.41391L6.70963 8.14262C6.7959 8.31191 6.95054 8.43399 7.13447 8.47957C7.31678 8.52514 7.51211 8.4877 7.66673 8.37864L8.9592 7.46059L10.2517 8.37864C10.4063 8.48933 10.6016 8.52514 10.7839 8.47957C10.9679 8.43399 11.1225 8.31028 11.2088 8.14262L12.5045 5.59351H13.7546V14.439H3.98776V5.59685L3.98959 5.59676Z" fill="#A85008"/>
</svg>
