<svg width="67" height="24" viewBox="0 0 67 24" fill="none" xmlns="http://www.w3.org/2000/svg">
<path d="M9.66965 0.00133498C9.4328 0.0151636 9.21434 0.19216 9.15175 0.420908C9.08916 0.649657 9.1871 0.913142 9.38394 1.04554C10.2867 1.67927 10.5241 2.15418 10.5625 2.5449C10.6009 2.93561 10.4171 3.37712 10.1161 3.89254C9.81508 4.40796 9.41636 4.95481 9.23215 5.63286C9.04794 6.31091 9.20117 7.15768 9.88394 7.83728C10.0951 8.05439 10.487 8.05606 10.7 7.84076C10.913 7.62545 10.907 7.23383 10.6875 7.02514C10.2248 6.56456 10.2241 6.32733 10.3304 5.93631C10.4366 5.54529 10.7747 5.04184 11.1072 4.47265C11.4396 3.90346 11.7836 3.22495 11.7054 2.42888C11.6272 1.63281 11.1015 0.850306 10.0447 0.108443C9.93718 0.0306915 9.80199 -0.00792788 9.66965 0.00133498ZM13.6518 0.858112C13.4255 0.878169 13.2195 1.04627 13.1546 1.26387C13.0897 1.48147 13.1699 1.73486 13.3482 1.87553C14.0761 2.47647 14.2619 2.89973 14.2857 3.24103C14.3096 3.58233 14.1496 3.94895 13.9018 4.3834C13.654 4.81785 13.3169 5.29074 13.1875 5.90061C13.0581 6.51048 13.267 7.24772 13.9018 7.8462C14.1192 8.05182 14.5041 8.04118 14.7098 7.82388C14.9155 7.60659 14.9049 7.22181 14.6875 7.0162C14.2526 6.60612 14.2418 6.42369 14.3036 6.13265C14.3653 5.8416 14.6176 5.43719 14.8929 4.95458C15.1681 4.47198 15.4696 3.87638 15.4197 3.16071C15.3697 2.44504 14.9521 1.71172 14.0804 0.991988C13.9634 0.892165 13.8048 0.842635 13.6518 0.858112ZM17.0893 2.85726C16.8409 2.8724 16.6148 3.06831 16.5644 3.31187C16.5141 3.55543 16.6441 3.82488 16.8661 3.93716C17.5961 4.33871 17.7066 4.59511 17.7143 4.66899C17.722 4.74287 17.6339 4.93188 17.3929 5.21339C17.1518 5.4949 16.8 5.78967 16.6339 6.31113C16.5509 6.57187 16.5571 6.92543 16.7054 7.21254C16.8537 7.49964 17.0996 7.71654 17.4197 7.9176C17.6744 8.07654 18.0509 7.98941 18.2099 7.7347C18.3689 7.48 18.2816 7.10366 18.0268 6.9448C17.8117 6.80968 17.7366 6.71196 17.7232 6.68598C17.7098 6.65998 17.7106 6.69875 17.7232 6.65921C17.7484 6.58007 17.9765 6.29293 18.2589 5.96308C18.5414 5.63322 18.9143 5.18373 18.8482 4.55297C18.7821 3.92221 18.2903 3.4165 17.4197 2.9376C17.321 2.8784 17.2041 2.84997 17.0893 2.85726ZM4.51786 9.43481C4.23696 9.46127 3.99879 9.72397 4.00001 10.006V10.8628C2.84123 10.8628 1.67254 10.8628 0.517862 10.8628C0.236957 10.8893 -0.00121196 11.1519 4.64047e-06 11.4339V12.0051C4.98333e-06 13.4128 0.750701 14.6324 1.89286 15.4679C3.00444 16.2811 4.49323 16.7665 6.13394 16.8513C7.96466 19.1141 10.8077 20.5729 14 20.5729C19.524 20.5729 24 16.2018 24 10.8628V10.006C24 9.70693 23.7278 9.43484 23.4286 9.43481C17.1261 9.43481 10.8165 9.43481 4.51786 9.43481ZM5.14286 10.5772H22.8572V10.8628C22.8572 15.5641 18.9229 19.4305 14 19.4305C9.0771 19.4305 5.14286 15.5641 5.14286 10.8628V10.5772ZM1.14286 12.0051H4.07143C4.22919 13.3035 4.65089 14.5273 5.28572 15.6197C4.21108 15.4449 3.27433 15.0629 2.57143 14.5487C1.65459 13.878 1.14286 13.0159 1.14286 12.0051ZM5.72322 18.5648C5.6528 18.5677 5.58278 18.582 5.51786 18.6094C4.75587 18.8934 4.12749 19.2362 3.66072 19.6447C3.19395 20.0532 2.85715 20.5585 2.85715 21.1441C2.85715 21.8556 3.34617 22.428 3.98215 22.7862C4.61813 23.1445 5.44485 23.3799 6.43751 23.5537C8.42282 23.9014 11.0818 24 14 24C16.9182 24 19.5772 23.9014 21.5625 23.5537C22.5552 23.3799 23.3819 23.1445 24.0179 22.7862C24.6539 22.428 25.1429 21.8556 25.1429 21.1441C25.1429 20.5585 24.8061 20.0532 24.3393 19.6447C23.8725 19.2362 23.2441 18.8934 22.4822 18.6094C22.2016 18.5042 21.8507 18.6637 21.7455 18.9441C21.6403 19.2245 21.7998 19.5753 22.0804 19.6804C22.7479 19.9291 23.2709 20.2228 23.5893 20.5015C23.9077 20.7802 24 21.0129 24 21.1441C24 21.375 23.8935 21.5488 23.4554 21.7956C23.0172 22.0424 22.2898 22.2675 21.3661 22.4292C19.5187 22.7527 16.892 22.8576 14 22.8576C11.108 22.8576 8.48134 22.7527 6.63394 22.4292C5.71023 22.2675 4.9828 22.0424 4.54465 21.7956C4.1065 21.5488 4.00001 21.375 4.00001 21.1441C4.00001 21.0129 4.09228 20.7802 4.41072 20.5015C4.72916 20.2228 5.24323 19.9291 5.91072 19.6804C6.17046 19.5981 6.34679 19.3098 6.30165 19.0412C6.2565 18.7726 5.9956 18.5577 5.72322 18.5648Z" fill="white"/>
<path d="M29.1428 12.0801C29.1428 11.3334 29.2282 10.6028 29.3988 9.88811C29.5802 9.16278 29.8308 8.48011 30.1508 7.84011C30.4708 7.18944 30.8495 6.59744 31.2868 6.06411C31.7348 5.52011 32.2202 5.05078 32.7428 4.65611C33.2762 4.26144 33.8415 3.95744 34.4388 3.74411C35.0362 3.52011 35.6495 3.40811 36.2788 3.40811C37.0148 3.40811 37.5855 3.56278 37.9908 3.87211C38.4068 4.18144 38.6148 4.61344 38.6148 5.16811C38.6148 5.38144 38.5828 5.60011 38.5188 5.82411C38.4655 6.04811 38.3802 6.27211 38.2628 6.49611C38.1562 6.70944 38.0282 6.91744 37.8788 7.12011C37.7295 7.32278 37.5642 7.49878 37.3828 7.64811C37.1055 7.60544 36.8655 7.48278 36.6628 7.28011C36.4602 7.06678 36.3322 6.82144 36.2788 6.54411C36.6522 6.23478 36.9455 5.91478 37.1588 5.58411C37.3828 5.24278 37.4948 4.93344 37.4948 4.65611C37.4948 4.18678 37.2015 3.95211 36.6148 3.95211C36.3695 3.95211 36.1135 4.00544 35.8468 4.11211C35.5908 4.20811 35.3295 4.34678 35.0628 4.52811C34.7962 4.70944 34.5348 4.92811 34.2788 5.18411C34.0335 5.44011 33.8042 5.72278 33.5908 6.03211C32.1082 8.16544 31.3668 10.3468 31.3668 12.5761C31.3668 13.3654 31.4895 14.0001 31.7348 14.4801C31.9802 14.9601 32.3055 15.2428 32.7108 15.3281C33.1695 15.2214 33.7508 14.9281 34.4548 14.4481C35.1588 13.9681 35.9268 13.3441 36.7588 12.5761C36.8655 12.6828 36.9295 12.7948 36.9508 12.9121C36.6415 13.3174 36.3215 13.7068 35.9908 14.0801C35.6602 14.4534 35.3295 14.7948 34.9988 15.1041C34.6788 15.4134 34.3588 15.6854 34.0388 15.9201C33.7295 16.1548 33.4415 16.3361 33.1748 16.4641C31.8522 16.4428 30.8495 16.0641 30.1668 15.3281C29.4842 14.5921 29.1428 13.5094 29.1428 12.0801Z" fill="white"/>
<path d="M39.8889 15.7761C39.2809 15.7121 38.7956 15.4454 38.4329 14.9761C38.0703 14.5068 37.8889 13.9094 37.8889 13.1841C37.8889 12.7574 37.9529 12.3148 38.0809 11.8561C38.2089 11.3974 38.3903 10.9548 38.6249 10.5281C38.8596 10.0908 39.1369 9.68011 39.4569 9.29611C39.7769 8.91211 40.1236 8.58144 40.4969 8.30411C41.0836 7.86678 41.6329 7.64811 42.1449 7.64811C42.4863 7.82944 42.8223 8.20811 43.1529 8.78411C43.2063 8.78411 43.2543 8.78411 43.2969 8.78411C43.3396 8.77344 43.3876 8.76811 43.4409 8.76811C44.0063 8.76811 44.2889 9.26944 44.2889 10.2721C44.2889 10.9441 44.1769 11.5841 43.9529 12.1921C43.7396 12.7894 43.4356 13.3334 43.0409 13.8241C42.6569 14.3148 42.1929 14.7308 41.6489 15.0721C41.1156 15.4028 40.5289 15.6374 39.8889 15.7761ZM40.7049 10.7361C40.5236 10.9814 40.3529 11.2481 40.1929 11.5361C40.0329 11.8241 39.8943 12.1174 39.7769 12.4161C39.6596 12.7041 39.5689 12.9868 39.5049 13.2641C39.4409 13.5308 39.4089 13.7708 39.4089 13.9841C39.4089 14.2401 39.4516 14.4854 39.5369 14.7201C39.6223 14.9548 39.7183 15.0881 39.8249 15.1201C40.3049 15.0134 40.7423 14.8161 41.1369 14.5281C41.5423 14.2294 41.8889 13.8614 42.1769 13.4241C42.4756 12.9868 42.7049 12.4908 42.8649 11.9361C43.0356 11.3814 43.1209 10.7894 43.1209 10.1601C43.1209 9.88278 43.1049 9.66411 43.0729 9.50411C43.0409 9.34411 42.9876 9.20544 42.9129 9.08811C42.4436 9.22678 42.0223 9.45078 41.6489 9.76011C41.2863 10.0694 40.9716 10.3948 40.7049 10.7361Z" fill="white"/>
<path d="M55.9651 3.66411C55.7837 3.66411 55.5864 3.77611 55.3731 4.00011C55.1597 4.22411 54.9304 4.53878 54.6851 4.94411C54.4504 5.33878 54.2104 5.81344 53.9651 6.36811C53.7304 6.92278 53.5011 7.53611 53.2771 8.20811C53.5224 8.21878 53.7784 8.23478 54.0451 8.25611C54.3224 8.26678 54.5571 8.28811 54.7491 8.32011C54.7704 8.36278 54.7811 8.43744 54.7811 8.54411C54.7811 8.66144 54.7651 8.78944 54.7331 8.92811C54.7117 9.06678 54.6744 9.17344 54.6211 9.24811C54.3544 9.22678 54.0877 9.20544 53.8211 9.18411C53.5651 9.15211 53.2984 9.12544 53.0211 9.10411C52.4877 10.7894 52.0077 12.2561 51.5811 13.5041C51.1651 14.7521 50.7757 15.8188 50.4131 16.7041C50.0611 17.6001 49.7304 18.3308 49.4211 18.8961C49.1117 19.4614 48.7971 19.9041 48.4771 20.2241C48.1571 20.5548 47.8211 20.7788 47.4691 20.8961C47.1277 21.0241 46.7491 21.0881 46.3331 21.0881C45.8531 21.0881 45.4477 21.0134 45.1171 20.8641C44.7971 20.7254 44.4984 20.5334 44.2211 20.2881C43.9011 20.5868 43.5704 20.7948 43.2291 20.9121C42.8771 21.0294 42.4877 21.0881 42.0611 21.0881C41.3037 21.0881 40.6584 20.8321 40.1251 20.3201C40.1251 20.2454 40.1464 20.1654 40.1891 20.0801C40.2317 19.9948 40.2797 19.9361 40.3331 19.9041C40.4824 20.0854 40.6797 20.2241 40.9251 20.3201C41.1704 20.4268 41.4264 20.4801 41.6931 20.4801C41.9704 20.4801 42.2264 20.4161 42.4611 20.2881C42.6851 20.1708 42.9091 19.9681 43.1331 19.6801C43.3464 19.3921 43.5597 19.0134 43.7731 18.5441C43.9971 18.0748 44.2371 17.4934 44.4931 16.8001C44.8877 15.7334 45.2717 14.5814 45.6451 13.3441C46.0184 12.1068 46.4291 10.7254 46.8771 9.20011C46.6317 9.22144 46.3917 9.24278 46.1571 9.26411C45.9224 9.28544 45.7037 9.30678 45.5011 9.32811C45.4584 9.28544 45.4211 9.22678 45.3891 9.15211C45.3677 9.07744 45.3571 9.00811 45.3571 8.94411C45.4957 8.90144 45.7091 8.85344 45.9971 8.80011C46.2957 8.73611 46.6477 8.67211 47.0531 8.60811C47.2984 7.80811 47.5651 7.08811 47.8531 6.44811C48.1411 5.80811 48.4557 5.25878 48.7971 4.80011C49.1384 4.34144 49.5064 3.98944 49.9011 3.74411C50.3064 3.49878 50.7437 3.37611 51.2131 3.37611C51.6291 3.37611 52.0237 3.48278 52.3971 3.69611C52.7811 3.90944 53.1331 4.13878 53.4531 4.38411C53.8051 4.01078 54.1731 3.71211 54.5571 3.48811C54.9517 3.26411 55.3357 3.15211 55.7091 3.15211C55.8264 3.15211 55.9437 3.16278 56.0611 3.18411C56.1891 3.19478 56.2851 3.20011 56.3491 3.20011C56.4451 3.12544 56.5731 3.06144 56.7331 3.00811C56.8931 2.94411 57.0317 2.91211 57.1491 2.91211C57.2771 2.91211 57.4424 2.98144 57.6451 3.12011C57.5597 3.26944 57.4691 3.47211 57.3731 3.72811C57.2771 3.98411 57.1971 4.23478 57.1331 4.48011C56.8664 5.26944 56.5837 5.78144 56.2851 6.01611C56.1677 6.01611 56.1037 5.86144 56.0931 5.55211C56.0717 5.31744 56.0291 5.11478 55.9651 4.94411C55.9117 4.76278 55.8851 4.56544 55.8851 4.35211C55.8851 4.28811 55.8904 4.21344 55.9011 4.12811C55.9117 4.03211 55.9331 3.87744 55.9651 3.66411ZM48.6371 16.8001C48.8184 16.3094 49.0104 15.7548 49.2131 15.1361C49.4157 14.5174 49.6184 13.8721 49.8211 13.2001C50.0344 12.5281 50.2477 11.8401 50.4611 11.1361C50.6744 10.4214 50.8771 9.72278 51.0691 9.04011H50.7651C50.4877 9.04011 50.1891 9.04544 49.8691 9.05611C49.5597 9.05611 49.2397 9.06144 48.9091 9.07211C48.4184 10.6614 47.9704 12.0588 47.5651 13.2641C47.1704 14.4588 46.7971 15.4934 46.4451 16.3681C46.1037 17.2534 45.7731 17.9841 45.4531 18.5601C45.1437 19.1468 44.8344 19.6214 44.5251 19.9841C44.6851 20.1334 44.8824 20.2508 45.1171 20.3361C45.3624 20.4321 45.6024 20.4801 45.8371 20.4801C46.1037 20.4801 46.3491 20.4161 46.5731 20.2881C46.8077 20.1708 47.0317 19.9681 47.2451 19.6801C47.4691 19.3921 47.6931 19.0134 47.9171 18.5441C48.1411 18.0748 48.3811 17.4934 48.6371 16.8001ZM51.2931 8.22411C51.4851 7.59478 51.7304 6.99211 52.0291 6.41611C52.3384 5.84011 52.6797 5.31744 53.0531 4.84811C52.8184 4.69878 52.5997 4.59744 52.3971 4.54411C52.1944 4.49078 52.0504 4.46411 51.9651 4.46411C51.6877 4.46411 51.4317 4.54944 51.1971 4.72011C50.9624 4.88011 50.7331 5.12544 50.5091 5.45611C50.2851 5.78678 50.0611 6.19211 49.8371 6.67211C49.6237 7.15211 49.3944 7.71211 49.1491 8.35211C49.4904 8.32011 49.8371 8.29344 50.1891 8.27211C50.5517 8.25078 50.9197 8.23478 51.2931 8.22411Z" fill="white"/>
<path d="M60.0258 8.59211C59.9832 9.25344 59.8658 9.82411 59.6738 10.3041C59.4818 10.7734 59.2045 11.1894 58.8418 11.5521C58.4898 11.9041 58.0578 12.2241 57.5458 12.5121C57.0338 12.8001 56.4365 13.0774 55.7538 13.3441C55.7538 13.4081 55.7485 13.4774 55.7378 13.5521C55.7378 13.6161 55.7378 13.6854 55.7378 13.7601C55.7378 13.8988 55.7485 14.0428 55.7698 14.1921C55.7912 14.3414 55.8285 14.4801 55.8818 14.6081C55.9352 14.7361 56.0098 14.8428 56.1058 14.9281C56.2018 15.0028 56.3245 15.0401 56.4738 15.0401C56.7618 15.0401 57.0445 14.9761 57.3218 14.8481C57.5992 14.7201 57.8605 14.5654 58.1058 14.3841C58.3618 14.1921 58.5965 13.9894 58.8098 13.7761C59.0338 13.5521 59.2312 13.3494 59.4018 13.1681C59.5085 13.2641 59.5992 13.3548 59.6738 13.4401C59.1938 14.0801 58.6658 14.6134 58.0898 15.0401C57.5245 15.4561 56.9858 15.7228 56.4738 15.8401C55.7378 15.7548 55.1618 15.4881 54.7458 15.0401C54.3405 14.5814 54.1378 14.0321 54.1378 13.3921C54.1378 12.9548 54.1965 12.5121 54.3138 12.0641C54.4418 11.6054 54.6125 11.1681 54.8258 10.7521C55.0498 10.3254 55.3058 9.92544 55.5938 9.55211C55.8925 9.17878 56.2072 8.85344 56.5378 8.57611C56.8792 8.29878 57.2258 8.08011 57.5778 7.92011C57.9405 7.76011 58.2978 7.68011 58.6498 7.68011C59.1405 7.74411 59.5992 8.04811 60.0258 8.59211ZM58.9218 9.12011C58.6338 9.16278 58.3352 9.28011 58.0258 9.47211C57.7165 9.66411 57.4232 9.92011 57.1458 10.2401C56.8792 10.5601 56.6338 10.9334 56.4098 11.3601C56.1858 11.7868 56.0098 12.2454 55.8818 12.7361C56.7352 12.3094 57.4445 11.7868 58.0098 11.1681C58.5752 10.5388 58.8792 9.85611 58.9218 9.12011Z" fill="white"/>
<path d="M66.4946 8.59211C66.4519 9.25344 66.3346 9.82411 66.1426 10.3041C65.9506 10.7734 65.6732 11.1894 65.3106 11.5521C64.9586 11.9041 64.5266 12.2241 64.0146 12.5121C63.5026 12.8001 62.9052 13.0774 62.2226 13.3441C62.2226 13.4081 62.2172 13.4774 62.2066 13.5521C62.2066 13.6161 62.2066 13.6854 62.2066 13.7601C62.2066 13.8988 62.2172 14.0428 62.2386 14.1921C62.2599 14.3414 62.2972 14.4801 62.3506 14.6081C62.4039 14.7361 62.4786 14.8428 62.5746 14.9281C62.6706 15.0028 62.7932 15.0401 62.9426 15.0401C63.2306 15.0401 63.5132 14.9761 63.7906 14.8481C64.0679 14.7201 64.3292 14.5654 64.5746 14.3841C64.8306 14.1921 65.0652 13.9894 65.2786 13.7761C65.5026 13.5521 65.6999 13.3494 65.8706 13.1681C65.9772 13.2641 66.0679 13.3548 66.1426 13.4401C65.6626 14.0801 65.1346 14.6134 64.5586 15.0401C63.9932 15.4561 63.4546 15.7228 62.9426 15.8401C62.2066 15.7548 61.6306 15.4881 61.2146 15.0401C60.8092 14.5814 60.6066 14.0321 60.6066 13.3921C60.6066 12.9548 60.6652 12.5121 60.7826 12.0641C60.9106 11.6054 61.0812 11.1681 61.2946 10.7521C61.5186 10.3254 61.7746 9.92544 62.0626 9.55211C62.3612 9.17878 62.6759 8.85344 63.0066 8.57611C63.3479 8.29878 63.6946 8.08011 64.0466 7.92011C64.4092 7.76011 64.7666 7.68011 65.1186 7.68011C65.6092 7.74411 66.0679 8.04811 66.4946 8.59211ZM65.3906 9.12011C65.1026 9.16278 64.8039 9.28011 64.4946 9.47211C64.1852 9.66411 63.8919 9.92011 63.6146 10.2401C63.3479 10.5601 63.1026 10.9334 62.8786 11.3601C62.6546 11.7868 62.4786 12.2454 62.3506 12.7361C63.2039 12.3094 63.9132 11.7868 64.4786 11.1681C65.0439 10.5388 65.3479 9.85611 65.3906 9.12011Z" fill="white"/>
</svg>
