<svg width="24" height="24" viewBox="0 0 24 24" fill="none" xmlns="http://www.w3.org/2000/svg">
<g id="TOKTOK">
<g id="Layer_1-2">
<g id="Group">
<path id="Vector" d="M10.524 10.3002V9.67568C10.3089 9.64639 10.0907 9.62833 9.86796 9.62833C7.1839 9.62833 5 11.8048 5 14.4801C5 16.1215 5.82274 17.5739 7.07839 18.4521C6.26813 17.5852 5.77119 16.4241 5.77119 15.1487C5.77119 12.5119 7.89307 10.3616 10.5244 10.3002H10.524Z" fill="#25F4EE"/>
<path id="Vector_2" d="M10.639 17.3644C11.8367 17.3644 12.8137 16.4149 12.858 15.2321L12.8624 4.66902H14.7986C14.7584 4.4519 14.7362 4.22876 14.7362 4H12.0916L12.0872 14.5631C12.0429 15.7459 11.0659 16.6954 9.86825 16.6954C9.49615 16.6954 9.14539 16.6027 8.83691 16.441C9.24083 16.9992 9.89725 17.3644 10.639 17.3644Z" fill="#25F4EE"/>
<path id="Vector_3" d="M18.415 8.25416V7.667C17.6764 7.667 16.9882 7.44828 16.4111 7.07303C16.925 7.66098 17.6229 8.08519 18.415 8.25416Z" fill="#25F4EE"/>
<path id="Vector_4" d="M16.4121 7.073C15.8491 6.42886 15.5072 5.58807 15.5072 4.66861H14.7988C14.9853 5.67275 15.5833 6.53441 16.4121 7.073Z" fill="#FE2C55"/>
<path id="Vector_5" d="M9.86789 12.2643C8.64204 12.2643 7.64453 13.2584 7.64453 14.48C7.64453 15.3309 8.12899 16.0701 8.83655 16.441C8.57278 16.0766 8.41572 15.6311 8.41572 15.1487C8.41572 13.927 9.41323 12.9329 10.6391 12.9329C10.8678 12.9329 11.0873 12.9706 11.2951 13.0352V10.3443C11.0801 10.315 10.8618 10.2969 10.6391 10.2969C10.6004 10.2969 10.5626 10.2989 10.5243 10.2997V12.3662C10.3165 12.3016 10.097 12.2639 9.8683 12.2639L9.86789 12.2643Z" fill="#FE2C55"/>
<path id="Vector_6" d="M18.4156 8.25412V10.3025C17.0444 10.3025 15.7734 9.86548 14.7361 9.12341V14.48C14.7361 17.1553 12.5522 19.3314 9.8681 19.3314C8.83072 19.3314 7.86905 19.0055 7.07812 18.452C7.96731 19.4036 9.23423 20 10.6389 20C13.3234 20 15.5068 17.8235 15.5068 15.1486V9.79243C16.5442 10.5345 17.8152 10.9716 19.1864 10.9716V8.33559C18.9218 8.33559 18.6641 8.3071 18.4156 8.25412Z" fill="#FE2C55"/>
<path id="Vector_7" d="M14.7366 14.48V9.12342C15.774 9.86549 17.0449 10.3025 18.4162 10.3025V8.25413C17.624 8.08517 16.9261 7.66136 16.4123 7.073C15.5835 6.53441 14.9855 5.67315 14.799 4.66861H12.8628L12.8584 15.2317C12.8141 16.4145 11.8371 17.364 10.6394 17.364C9.89765 17.364 9.24123 16.9988 8.83732 16.4406C8.12975 16.0693 7.64529 15.3301 7.64529 14.4796C7.64529 13.258 8.64281 12.2639 9.86866 12.2639C10.0974 12.2639 10.3169 12.3016 10.5247 12.3662V10.2997C7.89336 10.3611 5.77148 12.5115 5.77148 15.1483C5.77148 16.4237 6.26843 17.5848 7.07868 18.4516C7.8692 19.0047 8.83127 19.331 9.86866 19.331C12.5527 19.331 14.7366 17.1545 14.7366 14.4796V14.48Z" fill="black"/>
</g>
</g>
</g>
</svg>
